<?xml version="1.0" encoding="UTF-8"?>
<svg xmlns="http://www.w3.org/2000/svg" xmlns:xlink="http://www.w3.org/1999/xlink" width="150pt" height="30pt" viewBox="0 0 150 30" version="1.1">
<g id="surface1">
<path style=" stroke:none;fill-rule:nonzero;fill:rgb(99.215686%,99.607843%,99.607843%);fill-opacity:1;" d="M 150.75 11.101562 C 150.75 17.5 150.75 23.824219 150.75 30.148438 C 100.75 30.148438 50.75 30.148438 0.75 30.148438 C 0.75 20.148438 0.75 10.148438 0.75 0.148438 C 50.75 0.148438 100.75 0.148438 150.75 0.148438 C 150.75 3.773438 150.75 7.398438 150.75 11.101562 M 61.984375 23.167969 C 61.984375 23.167969 61.960938 23.179688 62.171875 23.257812 C 62.6875 23.308594 63.199219 23.359375 63.742188 23.398438 C 63.742188 23.398438 63.699219 23.40625 64.050781 23.496094 C 65.496094 23.585938 66.945312 23.675781 69.402344 23.828125 C 68.285156 23.171875 66.914062 22.71875 66.839844 22.261719 C 66.390625 19.472656 65.71875 16.675781 66.128906 13.890625 C 66.515625 11.25 68.144531 8.617188 69.867188 5.992188 C 70.082031 5.988281 70.296875 5.984375 70.964844 6.023438 C 71.988281 6.007812 73.015625 5.996094 74.089844 5.980469 C 73.082031 5.007812 73.085938 5.007812 77.441406 4.769531 C 77.589844 4.761719 77.644531 4.683594 77.933594 4.566406 C 77.726562 4.535156 77.519531 4.507812 77.328125 4.484375 C 77.328125 4.484375 77.359375 4.476562 77.636719 4.386719 C 78.996094 4.378906 80.359375 4.378906 81.71875 4.359375 C 85.46875 4.300781 89.21875 4.234375 93.382812 4.191406 C 93.519531 4.183594 93.652344 4.171875 94.261719 4.175781 C 94.574219 4.164062 94.882812 4.152344 95.773438 4.15625 C 100.128906 3.886719 104.546875 3.832031 109.640625 4.027344 C 110.371094 3.894531 111.097656 3.765625 112.304688 3.652344 C 115.414062 3.703125 116.914062 3.632812 118.074219 3.445312 C 118.191406 3.453125 118.3125 3.460938 118.738281 3.546875 C 119.5 3.488281 120.261719 3.429688 121.417969 3.296875 C 122.316406 3.265625 123.234375 3.25 124.113281 3.203125 C 125.542969 3.125 127.230469 3.101562 128.289062 2.925781 C 129.210938 2.773438 130.183594 2.3125 129.792969 2.222656 C 128.519531 1.929688 126.617188 1.542969 124.976562 1.546875 C 114.640625 1.570312 104.246094 1.578125 93.992188 1.804688 C 85.316406 1.996094 76.828125 2.503906 68.210938 2.824219 C 65.257812 2.933594 62.175781 2.902344 59.511719 2.933594 C 54.210938 3.671875 47.515625 3.554688 41.59375 4.019531 C 35.28125 4.238281 28.960938 4.449219 22.675781 4.699219 C 21.808594 4.730469 20.617188 4.9375 20.460938 5.101562 C 19.917969 5.660156 24.796875 6.953125 27.546875 6.902344 C 34.324219 6.777344 41.058594 6.558594 47.800781 6.363281 C 48.183594 6.351562 48.484375 6.230469 48.753906 6.152344 C 48.753906 6.152344 48.800781 6.164062 49.382812 6.144531 C 50.59375 6.066406 51.800781 5.984375 53.441406 5.875 C 53.625 5.828125 53.8125 5.78125 54.613281 5.796875 C 55.496094 5.851562 56.378906 5.910156 56.921875 5.945312 C 56.921875 6.605469 57.101562 7.203125 56.886719 7.792969 C 56.308594 9.398438 55.5625 10.996094 54.800781 12.699219 C 54.824219 12.765625 54.847656 12.832031 54.726562 13.027344 C 54.796875 13.28125 54.871094 13.539062 54.851562 13.894531 C 54.867188 13.964844 54.878906 14.035156 54.628906 14.214844 C 54.464844 14.410156 54.132812 14.609375 54.164062 14.800781 C 54.480469 16.652344 54.753906 18.503906 55.269531 20.351562 C 55.5 21.183594 55.460938 22.058594 59.234375 22.652344 C 59.234375 22.652344 59.152344 22.664062 59.277344 22.753906 C 59.757812 22.820312 60.234375 22.890625 60.742188 22.949219 C 60.742188 22.949219 60.703125 22.957031 60.890625 23.03125 C 61.234375 23.078125 61.582031 23.121094 61.984375 23.167969 M 48.730469 28.109375 C 48.839844 27.929688 48.664062 27.710938 49.105469 27.574219 C 51.144531 26.945312 49.953125 26.382812 46.164062 26.296875 C 44.621094 26.261719 43.035156 26.292969 41.226562 26.292969 C 41.226562 27.105469 41.164062 27.824219 41.285156 28.539062 C 41.304688 28.660156 42.109375 28.777344 42.550781 28.894531 C 43.0625 28.785156 43.828125 28.691406 44.019531 28.5625 C 44.316406 28.363281 44.214844 28.144531 44.296875 27.890625 C 49.035156 28.855469 49.035156 28.855469 50.804688 28.769531 C 50.191406 28.574219 49.597656 28.390625 48.730469 28.109375 M 92.175781 28.597656 C 93.046875 28.6875 93.871094 28.816406 94.796875 28.863281 C 98.054688 29.039062 100.816406 28.851562 102.414062 28.25 C 103.960938 27.671875 103.585938 27.085938 101.1875 26.609375 C 98.976562 26.167969 95.121094 26.148438 92.585938 26.523438 C 89.601562 26.96875 89.292969 27.710938 92.175781 28.597656 M 53.234375 28.75 C 55.203125 28.851562 55.203125 28.851562 56.351562 27.902344 C 58.820312 28.070312 58.320312 29.078125 62.792969 28.824219 C 61.609375 28.445312 60.640625 28.132812 59.671875 27.820312 C 60.042969 27.820312 60.410156 27.816406 60.777344 27.816406 C 60.953125 27.421875 61.953125 26.792969 61.140625 26.679688 C 59.082031 26.390625 56.214844 26.332031 53.710938 26.1875 C 53.316406 26.4375 53.183594 26.484375 53.183594 26.53125 C 53.160156 27.230469 53.160156 27.925781 53.234375 28.75 M 117.863281 27.65625 C 118.269531 28.398438 120.277344 28.855469 124.015625 28.917969 C 126.992188 28.964844 129.339844 28.710938 130.542969 28.132812 C 132.132812 27.371094 130.34375 26.574219 126.527344 26.332031 C 122.261719 26.058594 119.09375 26.5 117.863281 27.65625 M 73.910156 27.574219 C 73.296875 27.25 72.828125 26.90625 72.015625 26.601562 C 71.644531 26.460938 70.648438 26.328125 69.863281 26.308594 C 69.238281 26.292969 68.113281 26.421875 67.875 26.542969 C 66.375 27.289062 65.0625 28.054688 63.375 28.984375 C 66.113281 28.71875 67.960938 28.394531 69.796875 28.394531 C 71.738281 28.398438 73.667969 28.714844 76.292969 28.953125 C 75.402344 28.425781 74.773438 28.054688 73.910156 27.574219 M 81.722656 27.890625 C 82.734375 28.140625 83.609375 28.421875 84.808594 28.625 C 85.699219 28.777344 87.007812 28.835938 88.128906 28.933594 C 88.273438 28.871094 88.414062 28.808594 88.558594 28.742188 C 87.113281 28.34375 85.667969 27.945312 84.214844 27.542969 C 85.671875 27.15625 87.070312 26.78125 88.644531 26.363281 C 84.148438 26.089844 84.054688 27.113281 81.070312 27.25 C 81.019531 27.117188 81.101562 26.988281 80.902344 26.878906 C 80.542969 26.679688 80.019531 26.492188 79.5625 26.296875 C 79.054688 26.480469 78.246094 26.65625 78.109375 26.851562 C 77.867188 27.195312 77.886719 27.554688 78.082031 27.898438 C 78.277344 28.234375 78.910156 28.847656 79.214844 28.84375 C 82.5625 28.808594 80.097656 28.214844 81.722656 27.890625 M 113.773438 28.703125 C 116.496094 28.15625 117.28125 27.464844 115.570312 26.890625 C 113.253906 26.113281 109.535156 26.285156 105.8125 26.339844 C 105.8125 27.191406 105.8125 28 105.8125 28.929688 C 108.441406 28.871094 110.855469 28.820312 113.773438 28.703125 M 37.949219 26.300781 C 35.75 26.300781 33.546875 26.300781 31.300781 26.300781 C 31.300781 27.207031 31.300781 28.035156 31.300781 28.910156 C 32.992188 28.910156 34.386719 28.945312 35.710938 28.898438 C 36.734375 28.863281 37.667969 28.726562 38.636719 28.632812 C 37.765625 28.546875 36.882812 28.460938 36.03125 28.367188 C 35.304688 28.285156 34.617188 28.191406 33.914062 28.101562 C 34.546875 28.023438 35.175781 27.9375 35.824219 27.863281 C 36.582031 27.777344 37.359375 27.699219 38.125 27.617188 C 37.425781 27.519531 36.722656 27.421875 36.019531 27.328125 C 35.320312 27.234375 34.613281 27.140625 33.910156 27.046875 C 34.683594 26.96875 35.425781 26.851562 36.242188 26.828125 C 37.640625 26.785156 39.25 26.835938 37.949219 26.300781 M 26.242188 27.542969 C 26.433594 27.238281 25.382812 26.800781 28.332031 26.78125 C 28.636719 26.78125 29.191406 26.59375 29.128906 26.507812 C 29.066406 26.425781 28.378906 26.300781 27.9375 26.296875 C 25.824219 26.273438 23.695312 26.273438 21.582031 26.296875 C 21.152344 26.300781 20.59375 26.425781 20.402344 26.515625 C 20.28125 26.578125 20.699219 26.753906 20.917969 26.757812 C 24.421875 26.808594 23.109375 27.339844 23.289062 27.707031 C 23.421875 27.976562 23.183594 28.257812 23.386719 28.527344 C 23.484375 28.660156 24.210938 28.773438 24.652344 28.894531 C 25.179688 28.765625 26.035156 28.648438 26.167969 28.503906 C 26.417969 28.242188 26.242188 27.960938 26.242188 27.542969 Z M 26.242188 27.542969 "/>
<path style=" stroke:none;fill-rule:nonzero;fill:rgb(9.803922%,60%,61.568627%);fill-opacity:1;" d="M 54.871094 12.902344 C 54.847656 12.832031 54.824219 12.765625 55.03125 12.605469 C 56.464844 10.171875 58.195312 7.832031 58.117188 5.285156 C 56.054688 5.507812 55.027344 5.621094 53.996094 5.734375 C 53.8125 5.78125 53.625 5.828125 52.890625 5.875 C 51.160156 5.972656 49.980469 6.070312 48.800781 6.164062 C 48.800781 6.164062 48.753906 6.152344 48.488281 6.160156 C 43.84375 6.324219 39.449219 6.460938 35.097656 6.640625 C 30.78125 6.820312 26.628906 6.914062 23.835938 6.035156 C 23.03125 5.78125 21.785156 5.355469 22.257812 5.21875 C 23.054688 4.992188 25.007812 4.886719 26.574219 4.804688 C 31.683594 4.539062 36.835938 4.308594 41.972656 4.0625 C 47.515625 3.554688 54.210938 3.671875 59.511719 2.933594 C 62.175781 2.902344 65.257812 2.933594 68.210938 2.824219 C 76.828125 2.503906 85.316406 1.996094 93.992188 1.804688 C 104.246094 1.578125 114.640625 1.570312 124.976562 1.546875 C 126.617188 1.542969 128.519531 1.929688 129.792969 2.222656 C 130.183594 2.3125 129.210938 2.773438 128.289062 2.925781 C 127.230469 3.101562 125.542969 3.125 124.113281 3.203125 C 123.234375 3.25 122.316406 3.265625 120.957031 3.3125 C 119.8125 3.375 119.121094 3.421875 118.433594 3.46875 C 118.3125 3.460938 118.191406 3.453125 117.84375 3.382812 C 117.15625 3.265625 116.699219 3.207031 115.949219 3.152344 C 115.085938 3.160156 114.507812 3.164062 113.710938 3.191406 C 111.945312 3.292969 110.402344 3.378906 108.570312 3.460938 C 106.792969 3.539062 104.933594 3.773438 103.882812 3.671875 C 100.101562 3.308594 98.003906 3.945312 95.195312 4.140625 C 94.882812 4.152344 94.574219 4.164062 94.003906 4.136719 C 93.613281 4.066406 93.484375 4.035156 93.351562 4.003906 C 93.222656 4.058594 93.09375 4.117188 92.96875 4.171875 C 89.21875 4.234375 85.46875 4.300781 81.71875 4.359375 C 80.359375 4.378906 78.996094 4.378906 77.207031 4.4375 C 76.199219 4.5 75.617188 4.503906 74.820312 4.503906 C 75.25 4.261719 75.898438 4.027344 76.710938 3.738281 C 73.394531 3.824219 72.015625 4.1875 71.824219 4.804688 C 71.648438 4.804688 71.289062 4.804688 71.15625 4.816406 C 71.117188 4.867188 71.207031 4.90625 71.492188 4.972656 C 73.394531 5.429688 72.140625 5.714844 70.511719 5.984375 C 70.296875 5.984375 70.082031 5.988281 69.316406 6.007812 C 68.34375 6.242188 67.671875 6.457031 67.566406 6.683594 C 67.34375 7.148438 67.644531 7.625 67.339844 8.089844 C 65.324219 11.136719 63.945312 14.1875 64.5 17.265625 C 64.769531 18.765625 64.84375 20.269531 65.347656 21.765625 C 65.535156 22.328125 66.691406 22.875 67.386719 23.40625 C 65.925781 23.40625 64.8125 23.40625 63.699219 23.40625 C 63.699219 23.40625 63.742188 23.398438 63.699219 23.351562 C 63.089844 23.261719 62.527344 23.222656 61.960938 23.179688 C 61.960938 23.179688 61.984375 23.167969 61.96875 23.117188 C 61.53125 23.03125 61.117188 22.996094 60.703125 22.957031 C 60.703125 22.957031 60.742188 22.949219 60.707031 22.90625 C 60.164062 22.792969 59.660156 22.730469 59.152344 22.664062 C 59.152344 22.664062 59.234375 22.652344 59.226562 22.601562 C 58.464844 22.144531 57.183594 21.742188 57.046875 21.324219 C 56.359375 19.207031 55.984375 17.085938 55.457031 14.964844 C 55.386719 14.675781 55.085938 14.390625 54.894531 14.105469 C 54.878906 14.035156 54.867188 13.964844 55.070312 13.804688 C 55.148438 13.441406 55.007812 13.171875 54.871094 12.902344 Z M 54.871094 12.902344 "/>
<path style=" stroke:none;fill-rule:nonzero;fill:rgb(23.137255%,61.568627%,62.745098%);fill-opacity:1;" d="M 63.875 23.453125 C 64.8125 23.40625 65.925781 23.40625 67.386719 23.40625 C 66.691406 22.875 65.535156 22.328125 65.347656 21.765625 C 64.84375 20.269531 64.769531 18.765625 64.5 17.265625 C 63.945312 14.1875 65.324219 11.136719 67.339844 8.089844 C 67.644531 7.625 67.34375 7.148438 67.566406 6.683594 C 67.671875 6.457031 68.34375 6.242188 68.992188 6.003906 C 68.144531 8.617188 66.515625 11.25 66.128906 13.890625 C 65.71875 16.675781 66.390625 19.472656 66.839844 22.261719 C 66.914062 22.71875 68.285156 23.171875 69.402344 23.828125 C 66.945312 23.675781 65.496094 23.585938 63.875 23.453125 Z M 63.875 23.453125 "/>
<path style=" stroke:none;fill-rule:nonzero;fill:rgb(36.078431%,40.784314%,40%);fill-opacity:1;" d="M 48.867188 28.15625 C 49.597656 28.390625 50.191406 28.574219 50.804688 28.769531 C 49.035156 28.855469 49.035156 28.855469 44.296875 27.890625 C 44.214844 28.144531 44.316406 28.363281 44.019531 28.5625 C 43.828125 28.691406 43.0625 28.785156 42.550781 28.894531 C 42.109375 28.777344 41.304688 28.660156 41.285156 28.539062 C 41.164062 27.824219 41.226562 27.105469 41.226562 26.292969 C 43.035156 26.292969 44.621094 26.261719 46.164062 26.296875 C 49.953125 26.382812 51.144531 26.945312 49.105469 27.574219 C 48.664062 27.710938 48.839844 27.929688 48.867188 28.15625 Z M 48.867188 28.15625 "/>
<path style=" stroke:none;fill-rule:nonzero;fill:rgb(33.333333%,38.039216%,36.470588%);fill-opacity:1;" d="M 91.972656 28.554688 C 89.292969 27.710938 89.601562 26.96875 92.585938 26.523438 C 95.121094 26.148438 98.976562 26.167969 101.1875 26.609375 C 103.585938 27.085938 103.960938 27.671875 102.414062 28.25 C 100.816406 28.851562 98.054688 29.039062 94.796875 28.863281 C 93.871094 28.816406 93.046875 28.6875 91.972656 28.554688 M 93.082031 27.910156 C 94.597656 28.066406 96.066406 28.304688 97.648438 28.339844 C 98.453125 28.355469 100.101562 28.027344 100.226562 27.824219 C 100.398438 27.542969 99.867188 27.171875 98.933594 26.964844 C 98.269531 26.816406 95.859375 26.761719 95.265625 26.875 C 94.113281 27.097656 93.691406 27.472656 93.082031 27.910156 Z M 93.082031 27.910156 "/>
<path style=" stroke:none;fill-rule:nonzero;fill:rgb(32.941176%,37.254902%,36.470588%);fill-opacity:1;" d="M 53.195312 28.6875 C 53.160156 27.925781 53.160156 27.230469 53.183594 26.53125 C 53.183594 26.484375 53.316406 26.4375 53.710938 26.1875 C 56.214844 26.332031 59.082031 26.390625 61.140625 26.679688 C 61.953125 26.792969 60.953125 27.421875 60.777344 27.816406 C 60.410156 27.816406 60.042969 27.820312 59.671875 27.820312 C 60.640625 28.132812 61.609375 28.445312 62.792969 28.824219 C 58.320312 29.078125 58.820312 28.070312 56.351562 27.902344 C 55.203125 28.851562 55.203125 28.851562 53.195312 28.6875 Z M 53.195312 28.6875 "/>
<path style=" stroke:none;fill-rule:nonzero;fill:rgb(33.333333%,37.647059%,36.078431%);fill-opacity:1;" d="M 117.859375 27.597656 C 119.09375 26.5 122.261719 26.058594 126.527344 26.332031 C 130.34375 26.574219 132.132812 27.371094 130.542969 28.132812 C 129.339844 28.710938 126.992188 28.964844 124.015625 28.917969 C 120.277344 28.855469 118.269531 28.398438 117.859375 27.597656 M 120.714844 27.660156 C 120.96875 28.214844 122.667969 28.511719 125.167969 28.351562 C 126.476562 28.265625 128.058594 27.855469 128.050781 27.59375 C 128.039062 27.328125 126.441406 26.921875 125.125 26.835938 C 122.613281 26.679688 120.945312 26.988281 120.714844 27.660156 Z M 120.714844 27.660156 "/>
<path style=" stroke:none;fill-rule:nonzero;fill:rgb(33.72549%,38.039216%,36.862745%);fill-opacity:1;" d="M 74.027344 27.628906 C 74.773438 28.054688 75.402344 28.425781 76.292969 28.953125 C 73.667969 28.714844 71.738281 28.398438 69.796875 28.394531 C 67.960938 28.394531 66.113281 28.71875 63.375 28.984375 C 65.0625 28.054688 66.375 27.289062 67.875 26.542969 C 68.113281 26.421875 69.238281 26.292969 69.863281 26.308594 C 70.648438 26.328125 71.644531 26.460938 72.015625 26.601562 C 72.828125 26.90625 73.296875 27.25 74.027344 27.628906 Z M 74.027344 27.628906 "/>
<path style=" stroke:none;fill-rule:nonzero;fill:rgb(34.901961%,39.215686%,38.039216%);fill-opacity:1;" d="M 81.433594 27.910156 C 80.097656 28.214844 82.5625 28.808594 79.214844 28.84375 C 78.910156 28.847656 78.277344 28.234375 78.082031 27.898438 C 77.886719 27.554688 77.867188 27.195312 78.109375 26.851562 C 78.246094 26.65625 79.054688 26.480469 79.5625 26.296875 C 80.019531 26.492188 80.542969 26.679688 80.902344 26.878906 C 81.101562 26.988281 81.019531 27.117188 81.070312 27.25 C 84.054688 27.113281 84.148438 26.089844 88.644531 26.363281 C 87.070312 26.78125 85.671875 27.15625 84.214844 27.542969 C 85.667969 27.945312 87.113281 28.34375 88.558594 28.742188 C 88.414062 28.808594 88.273438 28.871094 88.128906 28.933594 C 87.007812 28.835938 85.699219 28.777344 84.808594 28.625 C 83.609375 28.421875 82.734375 28.140625 81.433594 27.910156 Z M 81.433594 27.910156 "/>
<path style=" stroke:none;fill-rule:nonzero;fill:rgb(32.54902%,37.254902%,35.686275%);fill-opacity:1;" d="M 113.519531 28.734375 C 110.855469 28.820312 108.441406 28.871094 105.8125 28.929688 C 105.8125 28 105.8125 27.191406 105.8125 26.339844 C 109.535156 26.285156 113.253906 26.113281 115.570312 26.890625 C 117.28125 27.464844 116.496094 28.15625 113.519531 28.734375 M 111.78125 28.328125 C 112.210938 27.929688 113.089844 27.515625 112.855469 27.132812 C 112.757812 26.96875 110.324219 26.863281 108.21875 26.660156 C 108.21875 27.21875 108.320312 27.558594 108.195312 27.898438 C 108.023438 28.367188 109.203125 28.449219 111.78125 28.328125 Z M 111.78125 28.328125 "/>
<path style=" stroke:none;fill-rule:nonzero;fill:rgb(40.784314%,44.313725%,43.921569%);fill-opacity:1;" d="M 38.175781 26.339844 C 39.25 26.835938 37.640625 26.785156 36.242188 26.828125 C 35.425781 26.851562 34.683594 26.96875 33.910156 27.046875 C 34.613281 27.140625 35.320312 27.234375 36.019531 27.328125 C 36.722656 27.421875 37.425781 27.519531 38.125 27.617188 C 37.359375 27.699219 36.582031 27.777344 35.824219 27.863281 C 35.175781 27.9375 34.546875 28.023438 33.914062 28.101562 C 34.617188 28.191406 35.304688 28.285156 36.03125 28.367188 C 36.882812 28.460938 37.765625 28.546875 38.636719 28.632812 C 37.667969 28.726562 36.734375 28.863281 35.710938 28.898438 C 34.386719 28.945312 32.992188 28.910156 31.300781 28.910156 C 31.300781 28.035156 31.300781 27.207031 31.300781 26.300781 C 33.546875 26.300781 35.75 26.300781 38.175781 26.339844 Z M 38.175781 26.339844 "/>
<path style=" stroke:none;fill-rule:nonzero;fill:rgb(23.137255%,61.568627%,62.745098%);fill-opacity:1;" d="M 41.785156 4.039062 C 36.835938 4.308594 31.683594 4.539062 26.574219 4.804688 C 25.007812 4.886719 23.054688 4.992188 22.257812 5.21875 C 21.785156 5.355469 23.03125 5.78125 23.835938 6.035156 C 26.628906 6.914062 30.78125 6.820312 35.097656 6.640625 C 39.449219 6.460938 43.84375 6.324219 48.519531 6.164062 C 48.484375 6.230469 48.183594 6.351562 47.800781 6.363281 C 41.058594 6.558594 34.324219 6.777344 27.546875 6.902344 C 24.796875 6.953125 19.917969 5.660156 20.460938 5.101562 C 20.617188 4.9375 21.808594 4.730469 22.675781 4.699219 C 28.960938 4.449219 35.28125 4.238281 41.785156 4.039062 Z M 41.785156 4.039062 "/>
<path style=" stroke:none;fill-rule:nonzero;fill:rgb(39.215686%,43.137255%,41.960784%);fill-opacity:1;" d="M 26.242188 27.613281 C 26.242188 27.960938 26.417969 28.242188 26.167969 28.503906 C 26.035156 28.648438 25.179688 28.765625 24.652344 28.894531 C 24.210938 28.773438 23.484375 28.660156 23.386719 28.527344 C 23.183594 28.257812 23.421875 27.976562 23.289062 27.707031 C 23.109375 27.339844 24.421875 26.808594 20.917969 26.757812 C 20.699219 26.753906 20.28125 26.578125 20.402344 26.515625 C 20.59375 26.425781 21.152344 26.300781 21.582031 26.296875 C 23.695312 26.273438 25.824219 26.273438 27.9375 26.296875 C 28.378906 26.300781 29.066406 26.425781 29.128906 26.507812 C 29.191406 26.59375 28.636719 26.78125 28.332031 26.78125 C 25.382812 26.800781 26.433594 27.238281 26.242188 27.613281 Z M 26.242188 27.613281 "/>
<path style=" stroke:none;fill-rule:nonzero;fill:rgb(23.137255%,61.568627%,62.745098%);fill-opacity:1;" d="M 54.761719 14.160156 C 55.085938 14.390625 55.386719 14.675781 55.457031 14.964844 C 55.984375 17.085938 56.359375 19.207031 57.046875 21.324219 C 57.183594 21.742188 58.464844 22.144531 59.195312 22.609375 C 55.460938 22.058594 55.5 21.183594 55.269531 20.351562 C 54.753906 18.503906 54.480469 16.652344 54.164062 14.800781 C 54.132812 14.609375 54.464844 14.410156 54.761719 14.160156 Z M 54.761719 14.160156 "/>
<path style=" stroke:none;fill-rule:nonzero;fill:rgb(23.137255%,61.568627%,62.745098%);fill-opacity:1;" d="M 54.304688 5.765625 C 55.027344 5.621094 56.054688 5.507812 58.117188 5.285156 C 58.195312 7.832031 56.464844 10.171875 55.070312 12.554688 C 55.5625 10.996094 56.308594 9.398438 56.886719 7.792969 C 57.101562 7.203125 56.921875 6.605469 56.921875 5.945312 C 56.378906 5.910156 55.496094 5.851562 54.304688 5.765625 Z M 54.304688 5.765625 "/>
<path style=" stroke:none;fill-rule:nonzero;fill:rgb(26.27451%,64.313725%,65.882353%);fill-opacity:1;" d="M 95.484375 4.148438 C 98.003906 3.945312 100.101562 3.308594 103.882812 3.671875 C 104.933594 3.773438 106.792969 3.539062 108.613281 3.492188 C 109.078125 3.566406 109.257812 3.589844 109.441406 3.652344 C 109.277344 3.800781 109.152344 3.898438 109.03125 3.996094 C 104.546875 3.832031 100.128906 3.886719 95.484375 4.148438 Z M 95.484375 4.148438 "/>
<path style=" stroke:none;fill-rule:nonzero;fill:rgb(23.137255%,61.568627%,62.745098%);fill-opacity:1;" d="M 70.738281 6.003906 C 72.140625 5.714844 73.394531 5.429688 71.484375 4.9375 C 71.28125 4.875 71.289062 4.804688 71.289062 4.804688 C 71.289062 4.804688 71.648438 4.804688 72.070312 4.796875 C 73.34375 4.695312 74.191406 4.601562 75.035156 4.507812 C 75.617188 4.503906 76.199219 4.5 77.070312 4.484375 C 77.359375 4.476562 77.328125 4.484375 77.347656 4.511719 C 77.433594 4.582031 77.558594 4.613281 77.742188 4.636719 C 77.644531 4.683594 77.589844 4.761719 77.441406 4.769531 C 73.085938 5.007812 73.082031 5.007812 74.089844 5.980469 C 73.015625 5.996094 71.988281 6.007812 70.738281 6.003906 Z M 70.738281 6.003906 "/>
<path style=" stroke:none;fill-rule:nonzero;fill:rgb(55.686275%,83.529412%,83.921569%);fill-opacity:1;" d="M 109.484375 3.601562 C 109.257812 3.589844 109.078125 3.566406 108.902344 3.496094 C 110.402344 3.378906 111.945312 3.292969 113.878906 3.21875 C 114.925781 3.203125 115.582031 3.175781 116.238281 3.152344 C 116.699219 3.207031 117.15625 3.265625 117.683594 3.363281 C 116.914062 3.632812 115.414062 3.703125 111.859375 3.640625 C 110.773438 3.621094 110.128906 3.609375 109.484375 3.601562 Z M 109.484375 3.601562 "/>
<path style=" stroke:none;fill-rule:nonzero;fill:rgb(23.137255%,61.568627%,62.745098%);fill-opacity:1;" d="M 49.09375 6.152344 C 49.980469 6.070312 51.160156 5.972656 52.675781 5.890625 C 51.800781 5.984375 50.59375 6.066406 49.09375 6.152344 Z M 49.09375 6.152344 "/>
<path style=" stroke:none;fill-rule:nonzero;fill:rgb(82.352941%,99.607843%,100%);fill-opacity:1;" d="M 109.441406 3.652344 C 110.128906 3.609375 110.773438 3.621094 111.621094 3.632812 C 111.097656 3.765625 110.371094 3.894531 109.335938 4.011719 C 109.152344 3.898438 109.277344 3.800781 109.441406 3.652344 Z M 109.441406 3.652344 "/>
<path style=" stroke:none;fill-rule:nonzero;fill:rgb(23.137255%,61.568627%,62.745098%);fill-opacity:1;" d="M 54.800781 12.964844 C 55.007812 13.171875 55.148438 13.441406 55.113281 13.753906 C 54.871094 13.539062 54.796875 13.28125 54.800781 12.964844 Z M 54.800781 12.964844 "/>
<path style=" stroke:none;fill-rule:nonzero;fill:rgb(45.098039%,80.392157%,80.784314%);fill-opacity:1;" d="M 118.585938 3.507812 C 119.121094 3.421875 119.8125 3.375 120.761719 3.351562 C 120.261719 3.429688 119.5 3.488281 118.585938 3.507812 Z M 118.585938 3.507812 "/>
<path style=" stroke:none;fill-rule:nonzero;fill:rgb(23.137255%,61.568627%,62.745098%);fill-opacity:1;" d="M 59.214844 22.707031 C 59.660156 22.730469 60.164062 22.792969 60.691406 22.910156 C 60.234375 22.890625 59.757812 22.820312 59.214844 22.707031 Z M 59.214844 22.707031 "/>
<path style=" stroke:none;fill-rule:nonzero;fill:rgb(23.137255%,61.568627%,62.745098%);fill-opacity:1;" d="M 62.066406 23.21875 C 62.527344 23.222656 63.089844 23.261719 63.683594 23.355469 C 63.199219 23.359375 62.6875 23.308594 62.066406 23.21875 Z M 62.066406 23.21875 "/>
<path style=" stroke:none;fill-rule:nonzero;fill:rgb(23.137255%,61.568627%,62.745098%);fill-opacity:1;" d="M 60.796875 22.996094 C 61.117188 22.996094 61.53125 23.03125 61.9375 23.117188 C 61.582031 23.121094 61.234375 23.078125 60.796875 22.996094 Z M 60.796875 22.996094 "/>
<path style=" stroke:none;fill-rule:nonzero;fill:rgb(26.27451%,64.313725%,65.882353%);fill-opacity:1;" d="M 93.175781 4.183594 C 93.09375 4.117188 93.222656 4.058594 93.351562 4.003906 C 93.484375 4.035156 93.613281 4.066406 93.765625 4.132812 C 93.652344 4.171875 93.519531 4.183594 93.175781 4.183594 Z M 93.175781 4.183594 "/>
<path style=" stroke:none;fill-rule:nonzero;fill:rgb(12.941176%,60%,60.784314%);fill-opacity:1;" d="M 77.835938 4.601562 C 77.558594 4.613281 77.433594 4.582031 77.335938 4.507812 C 77.519531 4.507812 77.726562 4.535156 77.835938 4.601562 Z M 77.835938 4.601562 "/>
<path style=" stroke:none;fill-rule:nonzero;fill:rgb(12.941176%,60%,60.784314%);fill-opacity:1;" d="M 74.820312 4.503906 C 74.191406 4.601562 73.34375 4.695312 72.25 4.796875 C 72.015625 4.1875 73.394531 3.824219 76.710938 3.738281 C 75.898438 4.027344 75.25 4.261719 74.820312 4.503906 Z M 74.820312 4.503906 "/>
<path style=" stroke:none;fill-rule:nonzero;fill:rgb(33.333333%,66.666667%,69.019608%);fill-opacity:1;" d="M 115.949219 3.152344 C 115.582031 3.175781 114.925781 3.203125 114.101562 3.203125 C 114.507812 3.164062 115.085938 3.160156 115.949219 3.152344 Z M 115.949219 3.152344 "/>
<path style=" stroke:none;fill-rule:nonzero;fill:rgb(12.941176%,60%,60.784314%);fill-opacity:1;" d="M 71.15625 4.816406 C 71.289062 4.804688 71.28125 4.875 71.289062 4.910156 C 71.207031 4.90625 71.117188 4.867188 71.15625 4.816406 Z M 71.15625 4.816406 "/>
<path style=" stroke:none;fill-rule:nonzero;fill:rgb(96.470588%,97.647059%,97.254902%);fill-opacity:1;" d="M 93.027344 27.847656 C 93.691406 27.472656 94.113281 27.097656 95.265625 26.875 C 95.859375 26.761719 98.269531 26.816406 98.933594 26.964844 C 99.867188 27.171875 100.398438 27.542969 100.226562 27.824219 C 100.101562 28.027344 98.453125 28.355469 97.648438 28.339844 C 96.066406 28.304688 94.597656 28.066406 93.027344 27.847656 Z M 93.027344 27.847656 "/>
<path style=" stroke:none;fill-rule:nonzero;fill:rgb(96.470588%,97.647059%,97.647059%);fill-opacity:1;" d="M 120.710938 27.597656 C 120.945312 26.988281 122.613281 26.679688 125.125 26.835938 C 126.441406 26.921875 128.039062 27.328125 128.050781 27.59375 C 128.058594 27.855469 126.476562 28.265625 125.167969 28.351562 C 122.667969 28.511719 120.96875 28.214844 120.710938 27.597656 Z M 120.710938 27.597656 "/>
<path style=" stroke:none;fill-rule:nonzero;fill:rgb(93.333333%,94.509804%,94.117647%);fill-opacity:1;" d="M 111.460938 28.34375 C 109.203125 28.449219 108.023438 28.367188 108.195312 27.898438 C 108.320312 27.558594 108.21875 27.21875 108.21875 26.660156 C 110.324219 26.863281 112.757812 26.96875 112.855469 27.132812 C 113.089844 27.515625 112.210938 27.929688 111.460938 28.34375 Z M 111.460938 28.34375 "/>
</g>
</svg>
